<?xml version="1.0" encoding="UTF-8" standalone="no"?><svg xmlns="http://www.w3.org/2000/svg" xmlns:xlink="http://www.w3.org/1999/xlink" contentStyleType="text/css" height="1237px" preserveAspectRatio="none" style="width:649px;height:1237px;background:#0D1117;" version="1.1" viewBox="0 0 649 1237" width="649px" zoomAndPan="magnify"><defs/><g><rect fill="#90EE90" height="198.3994" style="stroke:#000000;stroke-width:1.5;" width="622" x="10" y="252.1948"/><rect fill="#FFC0CB" height="97.9419" style="stroke:none;stroke-width:1.0;" width="622" x="10" y="352.6523"/><rect fill="#FFFFFF" height="182.5635" style="stroke:#000000;stroke-width:1.5;" width="211" x="421" y="563.6831"/><rect fill="none" height="198.3994" style="stroke:#000000;stroke-width:1.5;" width="622" x="10" y="941.4414"/><line style="stroke:#BB6600;stroke-width:0.5;stroke-dasharray:5.0,5.0;" x1="59" x2="59" y1="81.3687" y2="1156.8408"/><line style="stroke:#BB6600;stroke-width:0.5;stroke-dasharray:5.0,5.0;" x1="281.5" x2="281.5" y1="81.3687" y2="1156.8408"/><line style="stroke:#BB6600;stroke-width:0.5;stroke-dasharray:5.0,5.0;" x1="457" x2="457" y1="81.3687" y2="1156.8408"/><line style="stroke:#BB6600;stroke-width:0.5;stroke-dasharray:5.0,5.0;" x1="598" x2="598" y1="81.3687" y2="1156.8408"/><text fill="#FFFFFF" font-family="Verdana" font-size="11" lengthAdjust="spacing" textLength="73" x="20" y="79.0591">MovieFanatic</text><ellipse cx="59.5" cy="22.5" fill="#BB6600" rx="16" ry="16" style="stroke:#662200;stroke-width:1.5;"/><path d="M59.5,42.5 C63.5,42.5 66.5,42.5 70.5,38.5 C78.5,38.5 86.5,46.5 86.5,54.5 L86.5,58.5 C86.5,62.5 82.5,66.5 78.5,66.5 L40.5,66.5 C36.5,66.5 32.5,62.5 32.5,58.5 L32.5,54.5 C32.5,46.5 40.5,38.5 48.5,38.5 C52.5,42.5 55.5,42.5 59.5,42.5 " fill="#BB6600" style="stroke:#662200;stroke-width:1.5;"/><text fill="#FFFFFF" font-family="Verdana" font-size="11" lengthAdjust="spacing" textLength="73" x="20" y="1166.8999">MovieFanatic</text><ellipse cx="59.5" cy="1186.7095" fill="#BB6600" rx="16" ry="16" style="stroke:#662200;stroke-width:1.5;"/><path d="M59.5,1206.7095 C63.5,1206.7095 66.5,1206.7095 70.5,1202.7095 C78.5,1202.7095 86.5,1210.7095 86.5,1218.7095 L86.5,1222.7095 C86.5,1226.7095 82.5,1230.7095 78.5,1230.7095 L40.5,1230.7095 C36.5,1230.7095 32.5,1226.7095 32.5,1222.7095 L32.5,1218.7095 C32.5,1210.7095 40.5,1202.7095 48.5,1202.7095 C52.5,1206.7095 55.5,1206.7095 59.5,1206.7095 " fill="#BB6600" style="stroke:#662200;stroke-width:1.5;"/><rect fill="#2E2E2E" height="27.3687" rx="2.5" ry="2.5" style="stroke:#000000;stroke-width:0.5;" width="36" x="263.5" y="53"/><text fill="#FFFFFF" font-family="Verdana" font-size="11" lengthAdjust="spacing" textLength="22" x="270.5" y="71.0591">GUI</text><rect fill="#2E2E2E" height="27.3687" rx="2.5" ry="2.5" style="stroke:#000000;stroke-width:0.5;" width="36" x="263.5" y="1155.8408"/><text fill="#FFFFFF" font-family="Verdana" font-size="11" lengthAdjust="spacing" textLength="22" x="270.5" y="1173.8999">GUI</text><rect fill="#2E2E2E" height="27.3687" rx="2.5" ry="2.5" style="stroke:#000000;stroke-width:0.5;" width="53" x="431" y="53"/><text fill="#FFFFFF" font-family="Verdana" font-size="11" lengthAdjust="spacing" textLength="39" x="438" y="71.0591">Movies</text><rect fill="#2E2E2E" height="27.3687" rx="2.5" ry="2.5" style="stroke:#000000;stroke-width:0.5;" width="53" x="431" y="1155.8408"/><text fill="#FFFFFF" font-family="Verdana" font-size="11" lengthAdjust="spacing" textLength="39" x="438" y="1173.8999">Movies</text><rect fill="#2E2E2E" height="27.3687" rx="2.5" ry="2.5" style="stroke:#000000;stroke-width:0.5;" width="47" x="575" y="53"/><text fill="#FFFFFF" font-family="Verdana" font-size="11" lengthAdjust="spacing" textLength="33" x="582" y="71.0591">Movie</text><rect fill="#2E2E2E" height="27.3687" rx="2.5" ry="2.5" style="stroke:#000000;stroke-width:0.5;" width="47" x="575" y="1155.8408"/><text fill="#FFFFFF" font-family="Verdana" font-size="11" lengthAdjust="spacing" textLength="33" x="582" y="1173.8999">Movie</text><polygon fill="#FFFFFF" points="70.5,106.7373,60.5,110.7373,70.5,114.7373,66.5,110.7373" style="stroke:#FFFFFF;stroke-width:1.0;"/><line style="stroke:#FFFFFF;stroke-width:1.0;" x1="64.5" x2="280.5" y1="110.7373" y2="110.7373"/><text fill="#BBBBBB" font-family="Verdana" font-size="11" lengthAdjust="spacing" textLength="107" x="76.5" y="106.4277">Welcome message</text><rect fill="#EEEEEE" height="3" style="stroke:#EEEEEE;stroke-width:1.0;" width="642" x="0" y="139.9131"/><line style="stroke:#000000;stroke-width:1.0;" x1="0" x2="642" y1="139.9131" y2="139.9131"/><line style="stroke:#000000;stroke-width:1.0;" x1="0" x2="642" y1="142.9131" y2="142.9131"/><rect fill="#EEEEEE" height="24.3516" style="stroke:#000000;stroke-width:2.0;" width="85" x="278.5" y="128.7373"/><text fill="#000000" font-family="sans-serif" font-size="13" font-weight="bold" lengthAdjust="spacing" textLength="67" x="284.5" y="146.2324">Add Movie</text><polygon fill="#FFFFFF" points="269.5,178.4575,279.5,182.4575,269.5,186.4575,273.5,182.4575" style="stroke:#FFFFFF;stroke-width:1.0;"/><line style="stroke:#FFFFFF;stroke-width:1.0;" x1="59.5" x2="275.5" y1="182.4575" y2="182.4575"/><text fill="#BBBBBB" font-family="Verdana" font-size="11" lengthAdjust="spacing" textLength="198" x="66.5" y="178.1479">Movie name, rating, watch counter</text><polygon fill="#FFFFFF" points="445.5,205.8262,455.5,209.8262,445.5,213.8262,449.5,209.8262" style="stroke:#FFFFFF;stroke-width:1.0;"/><line style="stroke:#FFFFFF;stroke-width:1.0;" x1="281.5" x2="451.5" y1="209.8262" y2="209.8262"/><text fill="#BBBBBB" font-family="Verdana" font-size="11" lengthAdjust="spacing" textLength="64" x="288.5" y="205.5166">addMovie()</text><polygon fill="#FFFFFF" points="586.5,233.1948,596.5,237.1948,586.5,241.1948,590.5,237.1948" style="stroke:#FFFFFF;stroke-width:1.0;"/><line style="stroke:#FFFFFF;stroke-width:1.0;" x1="457.5" x2="592.5" y1="237.1948" y2="237.1948"/><text fill="#BBBBBB" font-family="Verdana" font-size="11" lengthAdjust="spacing" textLength="74" x="464.5" y="232.8853">constructor()</text><path d="M10,252.1948 L71,252.1948 L71,260.5464 L61,270.5464 L10,270.5464 L10,252.1948 " fill="#EEEEEE" style="stroke:#000000;stroke-width:1.5;"/><rect fill="none" height="198.3994" style="stroke:#000000;stroke-width:1.5;" width="622" x="10" y="252.1948"/><text fill="#000000" font-family="sans-serif" font-size="13" font-weight="bold" lengthAdjust="spacing" textLength="16" x="25" y="266.6899">alt</text><text fill="#000000" font-family="sans-serif" font-size="11" font-weight="bold" lengthAdjust="spacing" textLength="105" x="86" y="265.6138">[movie was added]</text><polygon fill="#000000" points="468.5,285.915,458.5,289.915,468.5,293.915,464.5,289.915" style="stroke:#000000;stroke-width:1.0;"/><line style="stroke:#000000;stroke-width:1.0;stroke-dasharray:2.0,2.0;" x1="462.5" x2="597.5" y1="289.915" y2="289.915"/><text fill="#000000" font-family="Verdana" font-size="11" lengthAdjust="spacing" textLength="23" x="478.5" y="285.6055">true</text><polygon fill="#000000" points="292.5,313.2837,282.5,317.2837,292.5,321.2837,288.5,317.2837" style="stroke:#000000;stroke-width:1.0;"/><line style="stroke:#000000;stroke-width:1.0;stroke-dasharray:2.0,2.0;" x1="286.5" x2="456.5" y1="317.2837" y2="317.2837"/><text fill="#000000" font-family="Verdana" font-size="11" lengthAdjust="spacing" textLength="23" x="302.5" y="312.9741">true</text><polygon fill="#000000" points="70.5,340.6523,60.5,344.6523,70.5,348.6523,66.5,344.6523" style="stroke:#000000;stroke-width:1.0;"/><line style="stroke:#000000;stroke-width:1.0;stroke-dasharray:2.0,2.0;" x1="64.5" x2="280.5" y1="344.6523" y2="344.6523"/><text fill="#000000" font-family="Verdana" font-size="11" lengthAdjust="spacing" textLength="99" x="80.5" y="340.3428">success message</text><line style="stroke:#000000;stroke-width:1.0;stroke-dasharray:2.0,2.0;" x1="10" x2="632" y1="353.6523" y2="353.6523"/><text fill="#000000" font-family="sans-serif" font-size="11" font-weight="bold" lengthAdjust="spacing" textLength="126" x="15" y="365.0713">[movie was not added]</text><polygon fill="#000000" points="468.5,383.8569,458.5,387.8569,468.5,391.8569,464.5,387.8569" style="stroke:#000000;stroke-width:1.0;"/><line style="stroke:#000000;stroke-width:1.0;stroke-dasharray:2.0,2.0;" x1="462.5" x2="597.5" y1="387.8569" y2="387.8569"/><text fill="#000000" font-family="Verdana" font-size="11" lengthAdjust="spacing" textLength="27" x="478.5" y="383.5474">false</text><polygon fill="#000000" points="292.5,411.2256,282.5,415.2256,292.5,419.2256,288.5,415.2256" style="stroke:#000000;stroke-width:1.0;"/><line style="stroke:#000000;stroke-width:1.0;stroke-dasharray:2.0,2.0;" x1="286.5" x2="456.5" y1="415.2256" y2="415.2256"/><text fill="#000000" font-family="Verdana" font-size="11" lengthAdjust="spacing" textLength="27" x="302.5" y="410.916">false</text><polygon fill="#000000" points="70.5,438.5942,60.5,442.5942,70.5,446.5942,66.5,442.5942" style="stroke:#000000;stroke-width:1.0;"/><line style="stroke:#000000;stroke-width:1.0;stroke-dasharray:2.0,2.0;" x1="64.5" x2="280.5" y1="442.5942" y2="442.5942"/><text fill="#000000" font-family="Verdana" font-size="11" lengthAdjust="spacing" textLength="72" x="80.5" y="438.2847">fail message</text><rect fill="#EEEEEE" height="3" style="stroke:#EEEEEE;stroke-width:1.0;" width="642" x="0" y="478.77"/><line style="stroke:#000000;stroke-width:1.0;" x1="0" x2="642" y1="478.77" y2="478.77"/><line style="stroke:#000000;stroke-width:1.0;" x1="0" x2="642" y1="481.77" y2="481.77"/><rect fill="#EEEEEE" height="24.3516" style="stroke:#000000;stroke-width:2.0;" width="192" x="225" y="467.5942"/><text fill="#000000" font-family="sans-serif" font-size="13" font-weight="bold" lengthAdjust="spacing" textLength="174" x="231" y="485.0894">Display all movies with info</text><polygon fill="#FFFFFF" points="269.5,517.3145,279.5,521.3145,269.5,525.3145,273.5,521.3145" style="stroke:#FFFFFF;stroke-width:1.0;"/><line style="stroke:#FFFFFF;stroke-width:1.0;" x1="59.5" x2="275.5" y1="521.3145" y2="521.3145"/><text fill="#BBBBBB" font-family="Verdana" font-size="11" lengthAdjust="spacing" textLength="93" x="66.5" y="517.0049">Show all movies</text><polygon fill="#FFFFFF" points="445.5,544.6831,455.5,548.6831,445.5,552.6831,449.5,548.6831" style="stroke:#FFFFFF;stroke-width:1.0;"/><line style="stroke:#FFFFFF;stroke-width:1.0;" x1="281.5" x2="451.5" y1="548.6831" y2="548.6831"/><text fill="#BBBBBB" font-family="Verdana" font-size="11" lengthAdjust="spacing" textLength="89" x="288.5" y="544.3735">displayMovies()</text><path d="M421,563.6831 L494,563.6831 L494,572.0347 L484,582.0347 L421,582.0347 L421,563.6831 " fill="#EEEEEE" style="stroke:#000000;stroke-width:1.5;"/><rect fill="none" height="182.5635" style="stroke:#000000;stroke-width:1.5;" width="211" x="421" y="563.6831"/><text fill="#000000" font-family="sans-serif" font-size="13" font-weight="bold" lengthAdjust="spacing" textLength="28" x="436" y="578.1782">loop</text><text fill="#000000" font-family="sans-serif" font-size="11" font-weight="bold" lengthAdjust="spacing" textLength="64" x="509" y="577.1021">[all movies]</text><polygon fill="#000000" points="586.5,597.4033,596.5,601.4033,586.5,605.4033,590.5,601.4033" style="stroke:#000000;stroke-width:1.0;"/><line style="stroke:#000000;stroke-width:1.0;" x1="457.5" x2="592.5" y1="601.4033" y2="601.4033"/><text fill="#000000" font-family="Verdana" font-size="11" lengthAdjust="spacing" textLength="61" x="468.5" y="597.0938">getName()</text><polygon fill="#000000" points="468.5,624.772,458.5,628.772,468.5,632.772,464.5,628.772" style="stroke:#000000;stroke-width:1.0;"/><line style="stroke:#000000;stroke-width:1.0;stroke-dasharray:2.0,2.0;" x1="462.5" x2="597.5" y1="628.772" y2="628.772"/><text fill="#000000" font-family="Verdana" font-size="11" lengthAdjust="spacing" textLength="33" x="478.5" y="624.4624">Name</text><polygon fill="#000000" points="586.5,652.1406,596.5,656.1406,586.5,660.1406,590.5,656.1406" style="stroke:#000000;stroke-width:1.0;"/><line style="stroke:#000000;stroke-width:1.0;" x1="457.5" x2="592.5" y1="656.1406" y2="656.1406"/><text fill="#000000" font-family="Verdana" font-size="11" lengthAdjust="spacing" textLength="64" x="468.5" y="651.8311">getRating()</text><polygon fill="#000000" points="468.5,679.5093,458.5,683.5093,468.5,687.5093,464.5,683.5093" style="stroke:#000000;stroke-width:1.0;"/><line style="stroke:#000000;stroke-width:1.0;stroke-dasharray:2.0,2.0;" x1="462.5" x2="597.5" y1="683.5093" y2="683.5093"/><text fill="#000000" font-family="Verdana" font-size="11" lengthAdjust="spacing" textLength="36" x="478.5" y="679.1997">Rating</text><polygon fill="#000000" points="586.5,706.8779,596.5,710.8779,586.5,714.8779,590.5,710.8779" style="stroke:#000000;stroke-width:1.0;"/><line style="stroke:#000000;stroke-width:1.0;" x1="457.5" x2="592.5" y1="710.8779" y2="710.8779"/><text fill="#000000" font-family="Verdana" font-size="11" lengthAdjust="spacing" textLength="113" x="468.5" y="706.5684">getWatch_counter()</text><polygon fill="#000000" points="468.5,734.2466,458.5,738.2466,468.5,742.2466,464.5,738.2466" style="stroke:#000000;stroke-width:1.0;"/><line style="stroke:#000000;stroke-width:1.0;stroke-dasharray:2.0,2.0;" x1="462.5" x2="597.5" y1="738.2466" y2="738.2466"/><text fill="#000000" font-family="Verdana" font-size="11" lengthAdjust="spacing" textLength="85" x="478.5" y="733.937">Watch_counter</text><polygon fill="#FFFFFF" points="292.5,768.6152,282.5,772.6152,292.5,776.6152,288.5,772.6152" style="stroke:#FFFFFF;stroke-width:1.0;"/><line style="stroke:#FFFFFF;stroke-width:1.0;stroke-dasharray:2.0,2.0;" x1="286.5" x2="456.5" y1="772.6152" y2="772.6152"/><text fill="#BBBBBB" font-family="Verdana" font-size="11" lengthAdjust="spacing" textLength="80" x="298.5" y="768.3057">Movies Vector</text><polygon fill="#FFFFFF" points="70.5,795.9839,60.5,799.9839,70.5,803.9839,66.5,799.9839" style="stroke:#FFFFFF;stroke-width:1.0;"/><line style="stroke:#FFFFFF;stroke-width:1.0;stroke-dasharray:2.0,2.0;" x1="64.5" x2="280.5" y1="799.9839" y2="799.9839"/><text fill="#BBBBBB" font-family="Verdana" font-size="11" lengthAdjust="spacing" textLength="112" x="76.5" y="795.6743">Show the movie list</text><rect fill="#EEEEEE" height="3" style="stroke:#EEEEEE;stroke-width:1.0;" width="642" x="0" y="829.1597"/><line style="stroke:#000000;stroke-width:1.0;" x1="0" x2="642" y1="829.1597" y2="829.1597"/><line style="stroke:#000000;stroke-width:1.0;" x1="0" x2="642" y1="832.1597" y2="832.1597"/><rect fill="#EEEEEE" height="24.3516" style="stroke:#000000;stroke-width:2.0;" width="240" x="201" y="817.9839"/><text fill="#000000" font-family="sans-serif" font-size="13" font-weight="bold" lengthAdjust="spacing" textLength="222" x="207" y="835.479">Increment watch counter for movie</text><polygon fill="#FFFFFF" points="269.5,867.7041,279.5,871.7041,269.5,875.7041,273.5,871.7041" style="stroke:#FFFFFF;stroke-width:1.0;"/><line style="stroke:#FFFFFF;stroke-width:1.0;" x1="59.5" x2="275.5" y1="871.7041" y2="871.7041"/><text fill="#BBBBBB" font-family="Verdana" font-size="11" lengthAdjust="spacing" textLength="145" x="66.5" y="867.3945">Movie name to increment</text><polygon fill="#FFFFFF" points="445.5,895.0728,455.5,899.0728,445.5,903.0728,449.5,899.0728" style="stroke:#FFFFFF;stroke-width:1.0;"/><line style="stroke:#FFFFFF;stroke-width:1.0;" x1="281.5" x2="451.5" y1="899.0728" y2="899.0728"/><text fill="#BBBBBB" font-family="Verdana" font-size="11" lengthAdjust="spacing" textLength="152" x="288.5" y="894.7632">incrementWatch_counter()</text><polygon fill="#FFFFFF" points="586.5,922.4414,596.5,926.4414,586.5,930.4414,590.5,926.4414" style="stroke:#FFFFFF;stroke-width:1.0;"/><line style="stroke:#FFFFFF;stroke-width:1.0;" x1="457.5" x2="592.5" y1="926.4414" y2="926.4414"/><text fill="#BBBBBB" font-family="Verdana" font-size="11" lengthAdjust="spacing" textLength="112" x="464.5" y="922.1318">setWatch_counter()</text><path d="M10,941.4414 L71,941.4414 L71,949.793 L61,959.793 L10,959.793 L10,941.4414 " fill="#EEEEEE" style="stroke:#000000;stroke-width:1.5;"/><rect fill="none" height="198.3994" style="stroke:#000000;stroke-width:1.5;" width="622" x="10" y="941.4414"/><text fill="#000000" font-family="sans-serif" font-size="13" font-weight="bold" lengthAdjust="spacing" textLength="16" x="25" y="955.9365">alt</text><text fill="#000000" font-family="sans-serif" font-size="11" font-weight="bold" lengthAdjust="spacing" textLength="4" x="86" y="954.8604">[</text><text fill="#008000" font-family="sans-serif" font-size="11" font-weight="bold" lengthAdjust="spacing" textLength="75" x="90" y="954.8604">movie exists]</text><polygon fill="#FFFFFF" points="468.5,975.1616,458.5,979.1616,468.5,983.1616,464.5,979.1616" style="stroke:#FFFFFF;stroke-width:1.0;"/><line style="stroke:#FFFFFF;stroke-width:1.0;stroke-dasharray:2.0,2.0;" x1="462.5" x2="597.5" y1="979.1616" y2="979.1616"/><text fill="#BBBBBB" font-family="Verdana" font-size="11" lengthAdjust="spacing" textLength="23" x="474.5" y="974.8521">true</text><polygon fill="#FFFFFF" points="292.5,1002.5303,282.5,1006.5303,292.5,1010.5303,288.5,1006.5303" style="stroke:#FFFFFF;stroke-width:1.0;"/><line style="stroke:#FFFFFF;stroke-width:1.0;stroke-dasharray:2.0,2.0;" x1="286.5" x2="456.5" y1="1006.5303" y2="1006.5303"/><text fill="#BBBBBB" font-family="Verdana" font-size="11" lengthAdjust="spacing" textLength="23" x="298.5" y="1002.2207">true</text><polygon fill="#FFFFFF" points="70.5,1029.8989,60.5,1033.8989,70.5,1037.8989,66.5,1033.8989" style="stroke:#FFFFFF;stroke-width:1.0;"/><line style="stroke:#FFFFFF;stroke-width:1.0;stroke-dasharray:2.0,2.0;" x1="64.5" x2="280.5" y1="1033.8989" y2="1033.8989"/><text fill="#BBBBBB" font-family="Verdana" font-size="11" lengthAdjust="spacing" textLength="99" x="76.5" y="1029.5894">success message</text><line style="stroke:#000000;stroke-width:1.0;stroke-dasharray:2.0,2.0;" x1="10" x2="632" y1="1042.8989" y2="1042.8989"/><text fill="#000000" font-family="sans-serif" font-size="11" font-weight="bold" lengthAdjust="spacing" textLength="4" x="15" y="1054.3179">[</text><text fill="#FF0000" font-family="sans-serif" font-size="11" font-weight="bold" lengthAdjust="spacing" textLength="113" x="19" y="1054.3179">movie doesn't exist]</text><polygon fill="#FFFFFF" points="468.5,1073.1035,458.5,1077.1035,468.5,1081.1035,464.5,1077.1035" style="stroke:#FFFFFF;stroke-width:1.0;"/><line style="stroke:#FFFFFF;stroke-width:1.0;stroke-dasharray:2.0,2.0;" x1="462.5" x2="597.5" y1="1077.1035" y2="1077.1035"/><text fill="#BBBBBB" font-family="Verdana" font-size="11" lengthAdjust="spacing" textLength="27" x="474.5" y="1072.7939">false</text><polygon fill="#FFFFFF" points="292.5,1100.4722,282.5,1104.4722,292.5,1108.4722,288.5,1104.4722" style="stroke:#FFFFFF;stroke-width:1.0;"/><line style="stroke:#FFFFFF;stroke-width:1.0;stroke-dasharray:2.0,2.0;" x1="286.5" x2="456.5" y1="1104.4722" y2="1104.4722"/><text fill="#BBBBBB" font-family="Verdana" font-size="11" lengthAdjust="spacing" textLength="27" x="298.5" y="1100.1626">false</text><polygon fill="#FFFFFF" points="70.5,1127.8408,60.5,1131.8408,70.5,1135.8408,66.5,1131.8408" style="stroke:#FFFFFF;stroke-width:1.0;"/><line style="stroke:#FFFFFF;stroke-width:1.0;stroke-dasharray:2.0,2.0;" x1="64.5" x2="280.5" y1="1131.8408" y2="1131.8408"/><text fill="#BBBBBB" font-family="Verdana" font-size="11" lengthAdjust="spacing" textLength="72" x="76.5" y="1127.5313">fail message</text><!--MD5=[8ed4a38ab32054263ee38733e510bda1]
@startuml sequence diagram
!define DARKORANGE
!include style.puml
skinparam actorStyle awesome
skinparam SequenceBoxBorderColor #Blue

actor MovieFanatic
participant GUI
participant Movies
participant Movie

MovieFanatic <- GUI : Welcome message

== Add Movie ==

MovieFanatic -> GUI : Movie name, rating, watch counter
GUI -> Movies : addMovie()
Movies -> Movie : constructor()

alt #LightGreen movie was added
  Movie -[#Black]-> Movies : <font color=black> true
  Movies -[#Black]-> GUI : <font color=black> true
  GUI -[#Black]-> MovieFanatic : <font color=black> success message

else #Pink movie was not added
  Movie -[#Black]-> Movies : <font color=black> false
  Movies -[#Black]-> GUI : <font color=black> false
  GUI -[#Black]-> MovieFanatic : <font color=black> fail message
end

== Display all movies with info ==

MovieFanatic -> GUI : Show all movies
GUI -> Movies : displayMovies()

loop #White all movies
  Movies -[#Black]> Movie : <font color=black> getName()
  Movies <-[#Black]- Movie : <font color=black> Name
  Movies -[#Black]> Movie : <font color=black> getRating()
  Movies <-[#Black]- Movie : <font color=black> Rating
  Movies -[#Black]> Movie : <font color=black> getWatch_counter()
  Movies <-[#Black]- Movie : <font color=black> Watch_counter
end

GUI <- - Movies : Movies Vector
MovieFanatic <- - GUI : Show the movie list

== Increment watch counter for movie ==

MovieFanatic -> GUI : Movie name to increment
GUI -> Movies : incrementWatch_counter()
Movies -> Movie : setWatch_counter()

alt <font color=green>movie exists
  Movie - -> Movies : true
  Movies - -> GUI : true
  GUI - -> MovieFanatic : success message

else <font color=red>movie doesn't exist
  Movie - -> Movies : false
  Movies - -> GUI : false
  GUI - -> MovieFanatic : fail message
end

@enduml

@startuml sequence diagram









skinparam stereotypeCBackgroundColor BB6600
skinparam usecaseBackgroundColor<< Use Case >> BB6600



skinparam backgroundColor 0d1117







skinparam circledCharacter {
  radius 8
  fontSize 11
  fontName Verdana
}

skinparam class {
    backgroundColor 2e2e2e
  borderColor 000000
    fontColor fff
  fontName Verdana
  fontSize 11
  stereotypeFontColor aaa
  stereotypeFontSize 11
    arrowColor fff
  arrowFontName Verdana
  arrowFontColor bbb
  arrowFontSize 11

  attributeFontColor aaa
  attributeFontSize 11
  attributeIconSize 11
}


skinparam actor {
    backgroundColor BB6600
  borderColor 662200
    fontColor fff
  fontName Verdana
  fontSize 11
  stereotypeFontColor aaa
  stereotypeFontSize 11
}

skinparam participant {
    backgroundColor 2e2e2e
  borderColor 000000
    fontColor fff
  fontName Verdana
  fontSize 11
  stereotypeFontColor aaa
  stereotypeFontSize 11
}

skinparam collections {
    backgroundColor 2e2e2e
  borderColor 000000
    fontColor fff
  fontName Verdana
  fontSize 11
  stereotypeFontColor aaa
  stereotypeFontSize 11
}

skinparam SequenceBox{
    backgroundColor 575757
  borderColor 767676
    fontColor fff
  fontName Verdana
  fontSize 11
  stereotypeFontColor aaa
  stereotypeFontSize 11
}


skinparam interface {
    backgroundColor BB6600
  borderColor 662200
    fontColor fff
  fontName Verdana
  fontSize 11
  stereotypeFontColor aaa
  stereotypeFontSize 11
}

skinparam component {
    backgroundColor 2e2e2e
  borderColor 000000
    fontColor fff
  fontName Verdana
  fontSize 11
  stereotypeFontColor aaa
  stereotypeFontSize 11
}

skinparam node {
    backgroundColor 2e2e2e
  borderColor 000000
    fontColor fff
  fontName Verdana
  fontSize 11
  stereotypeFontColor aaa
  stereotypeFontSize 11
}

skinparam database {
    backgroundColor 2e2e2e
  borderColor 000000
    fontColor fff
  fontName Verdana
  fontSize 11
  stereotypeFontColor aaa
  stereotypeFontSize 11
}

skinparam queue {
    backgroundColor 2e2e2e
  borderColor 000000
    fontColor fff
  fontName Verdana
  fontSize 11
  stereotypeFontColor aaa
  stereotypeFontSize 11
}


skinparam usecase {
    backgroundColor 2e2e2e
  borderColor 000000
    fontColor fff
  fontName Verdana
  fontSize 11
  stereotypeFontColor aaa
  stereotypeFontSize 11
    arrowColor fff
  arrowFontName Verdana
  arrowFontColor bbb
  arrowFontSize 11
}

skinparam activity {
    backgroundColor 2e2e2e
  borderColor 000000
    fontColor fff
  fontName Verdana
  fontSize 11
  stereotypeFontColor aaa
  stereotypeFontSize 11
    arrowColor fff
  arrowFontName Verdana
  arrowFontColor bbb
  arrowFontSize 11
}

skinparam sequence {
    fontColor fff
  fontName Verdana
  fontSize 11
  stereotypeFontColor aaa
  stereotypeFontSize 11
    arrowColor fff
  arrowFontName Verdana
  arrowFontColor bbb
  arrowFontSize 11

  lifeLineBorderColor BB6600
  lifeLineBackgroundColor 575757
}

skinparam boundary {
    backgroundColor BB6600
  borderColor 662200
    fontColor fff
  fontName Verdana
  fontSize 11
  stereotypeFontColor aaa
  stereotypeFontSize 11
}

skinparam control {
    backgroundColor BB6600
  borderColor 662200
    fontColor fff
  fontName Verdana
  fontSize 11
  stereotypeFontColor aaa
  stereotypeFontSize 11
}

skinparam entity {
    backgroundColor BB6600
  borderColor 662200
    fontColor fff
  fontName Verdana
  fontSize 11
  stereotypeFontColor aaa
  stereotypeFontSize 11
}


skinparam state {
    backgroundColor 2e2e2e
  borderColor 000000
    fontColor fff
  fontName Verdana
  fontSize 11
  stereotypeFontColor aaa
  stereotypeFontSize 11
    arrowColor fff
  arrowFontName Verdana
  arrowFontColor bbb
  arrowFontSize 11
  startColor BB6600
  endColor 662200
}


skinparam object {
    backgroundColor 2e2e2e
  borderColor 000000
    fontColor fff
  fontName Verdana
  fontSize 11
  stereotypeFontColor aaa
  stereotypeFontSize 11
    arrowColor fff
  arrowFontName Verdana
  arrowFontColor bbb
  arrowFontSize 11
}


skinparam note {
    backgroundColor BB6600
  borderColor 662200
    fontColor fff
  fontName Verdana
  fontSize 11
  stereotypeFontColor aaa
  stereotypeFontSize 11
}

skinparam cloud {
    backgroundColor 2e2e2e
  borderColor 000000
    fontColor fff
  fontName Verdana
  fontSize 11
  stereotypeFontColor aaa
  stereotypeFontSize 11
    arrowColor fff
  arrowFontName Verdana
  arrowFontColor bbb
  arrowFontSize 11
}

skinparam rectangle {
    backgroundColor 2e2e2e
  borderColor 000000
    fontColor fff
  fontName Verdana
  fontSize 11
  stereotypeFontColor aaa
  stereotypeFontSize 11
}

skinparam storage {
    backgroundColor 2e2e2e
  borderColor 000000
    fontColor fff
  fontName Verdana
  fontSize 11
  stereotypeFontColor aaa
  stereotypeFontSize 11
}

skinparam actorStyle awesome
skinparam SequenceBoxBorderColor #Blue

actor MovieFanatic
participant GUI
participant Movies
participant Movie

MovieFanatic <- GUI : Welcome message

== Add Movie ==

MovieFanatic -> GUI : Movie name, rating, watch counter
GUI -> Movies : addMovie()
Movies -> Movie : constructor()

alt #LightGreen movie was added
  Movie -[#Black]-> Movies : <font color=black> true
  Movies -[#Black]-> GUI : <font color=black> true
  GUI -[#Black]-> MovieFanatic : <font color=black> success message

else #Pink movie was not added
  Movie -[#Black]-> Movies : <font color=black> false
  Movies -[#Black]-> GUI : <font color=black> false
  GUI -[#Black]-> MovieFanatic : <font color=black> fail message
end

== Display all movies with info ==

MovieFanatic -> GUI : Show all movies
GUI -> Movies : displayMovies()

loop #White all movies
  Movies -[#Black]> Movie : <font color=black> getName()
  Movies <-[#Black]- Movie : <font color=black> Name
  Movies -[#Black]> Movie : <font color=black> getRating()
  Movies <-[#Black]- Movie : <font color=black> Rating
  Movies -[#Black]> Movie : <font color=black> getWatch_counter()
  Movies <-[#Black]- Movie : <font color=black> Watch_counter
end

GUI <- - Movies : Movies Vector
MovieFanatic <- - GUI : Show the movie list

== Increment watch counter for movie ==

MovieFanatic -> GUI : Movie name to increment
GUI -> Movies : incrementWatch_counter()
Movies -> Movie : setWatch_counter()

alt <font color=green>movie exists
  Movie - -> Movies : true
  Movies - -> GUI : true
  GUI - -> MovieFanatic : success message

else <font color=red>movie doesn't exist
  Movie - -> Movies : false
  Movies - -> GUI : false
  GUI - -> MovieFanatic : fail message
end

@enduml

PlantUML version 1.2022.7(Mon Aug 22 19:01:30 CEST 2022)
(GPL source distribution)
Java Runtime: OpenJDK Runtime Environment
JVM: OpenJDK 64-Bit Server VM
Default Encoding: Cp1252
Language: en
Country: GB
--></g></svg>