<?xml version="1.0" encoding="UTF-8" standalone="no"?><svg xmlns="http://www.w3.org/2000/svg" xmlns:xlink="http://www.w3.org/1999/xlink" contentStyleType="text/css" height="276px" preserveAspectRatio="none" style="width:747px;height:276px;background:#FFFFFF;" version="1.1" viewBox="0 0 747 276" width="747px" zoomAndPan="magnify"><defs/><g><!--MD5=[29de3c702156c480bd0f484d327e7c92]
cluster Movieteka--><g id="cluster_Movieteka"><rect fill="none" height="262" rx="2.5" ry="2.5" style="stroke:#181818;stroke-width:1.0;" width="574" x="167" y="8.5"/><text fill="#000000" font-family="sans-serif" font-size="14" font-weight="bold" lengthAdjust="spacing" textLength="74" x="417" y="25.0332">Movieteka</text></g><g id="elem_Add"><ellipse cx="303.7516" cy="63.4503" fill="#F1F1F1" rx="82.7516" ry="18.9503" style="stroke:#181818;stroke-width:0.5;"/><text fill="#000000" font-family="sans-serif" font-size="14" lengthAdjust="spacing" textLength="121" x="243.2516" y="67.1788">Add movie with info</text></g><g id="elem_Display"><ellipse cx="304.2412" cy="140.4482" fill="#F1F1F1" rx="102.7412" ry="22.9482" style="stroke:#181818;stroke-width:0.5;"/><text fill="#000000" font-family="sans-serif" font-size="14" lengthAdjust="spacing" textLength="167" x="220.7412" y="144.1768">Display all movies with info</text></g><g id="elem_Increment"><ellipse cx="303.9806" cy="226.5309" fill="#F1F1F1" rx="120.9806" ry="28.0309" style="stroke:#181818;stroke-width:0.5;"/><text fill="#000000" font-family="sans-serif" font-size="14" lengthAdjust="spacing" textLength="154" x="223.9806" y="222.2428">Increment watch counter</text><text fill="#000000" font-family="sans-serif" font-size="14" lengthAdjust="spacing" textLength="58" x="271.9806" y="239.8522">for movie</text></g><g id="elem_Check"><ellipse cx="633.2628" cy="129.6526" fill="#F1F1F1" rx="91.2628" ry="20.6526" style="stroke:#181818;stroke-width:0.5;"/><text fill="#000000" font-family="sans-serif" font-size="14" lengthAdjust="spacing" textLength="141" x="562.7628" y="133.3811">Check movie in the list</text></g><!--MD5=[fbf0f86b85c959cf0beff16836bfcfe2]
entity MovieFanatic--><g id="elem_MovieFanatic"><ellipse cx="63" cy="117.5" fill="#F1F1F1" rx="16" ry="16" style="stroke:#181818;stroke-width:1.5;"/><path d="M63,137.5 C67,137.5 70,137.5 74,133.5 C82,133.5 90,141.5 90,149.5 L90,153.5 C90,157.5 86,161.5 82,161.5 L44,161.5 C40,161.5 36,157.5 36,153.5 L36,149.5 C36,141.5 44,133.5 52,133.5 C56,137.5 59,137.5 63,137.5 " fill="#F1F1F1" style="stroke:#181818;stroke-width:1.5;"/><text fill="#000000" font-family="sans-serif" font-size="14" lengthAdjust="spacing" textLength="84" x="21" y="177.5332">MovieFanatic</text></g><g id="elem_note1"><path d="M6,6 L6,65.0547 L120,65.0547 L120,16 L110,6 L6,6 " fill="#FEFFDD" style="stroke:#181818;stroke-width:0.5;"/><path d="M110,6 L110,16 L120,16 L110,6 " fill="#FEFFDD" style="stroke:#181818;stroke-width:1.0;"/><text fill="#000000" font-family="sans-serif" font-size="13" lengthAdjust="spacing" textLength="24" x="12" y="24.4951">info:</text><text fill="#000000" font-family="sans-serif" font-size="13" lengthAdjust="spacing" textLength="40" x="16" y="40.8467">- rating</text><text fill="#000000" font-family="sans-serif" font-size="13" lengthAdjust="spacing" textLength="89" x="16" y="57.1982">- watch counter</text></g><!--MD5=[12225a6930feab25646f6453126dcc33]
link MovieFanatic to Add--><g id="link_MovieFanatic_Add"><path d="M105.05,121.05 C121.58,113.68 140.96,105.6 159,99.5 C185.97,90.38 216.49,82.42 242.47,76.33 " fill="none" id="MovieFanatic-Add" style="stroke:#181818;stroke-width:1.0;"/></g><!--MD5=[848fe51f38b3b405cfe07955969bb257]
link MovieFanatic to Display--><g id="link_MovieFanatic_Display"><path d="M105.09,140.5 C131.64,140.5 167.46,140.5 201.32,140.5 " fill="none" id="MovieFanatic-Display" style="stroke:#181818;stroke-width:1.0;"/></g><!--MD5=[e23b10cd5a7105940a0c760bce95d4de]
link MovieFanatic to Increment--><g id="link_MovieFanatic_Increment"><path d="M105.3,158.84 C121.86,165.94 141.21,173.93 159,180.5 C181.65,188.87 206.62,197.16 229.31,204.35 " fill="none" id="MovieFanatic-Increment" style="stroke:#181818;stroke-width:1.0;"/></g><!--MD5=[57816b8b24e3af26ed752578e9fe954a]
link Increment to Check--><g id="link_Increment_Check"><path d="M379.31,204.49 C437.85,187.15 518.37,163.3 572.76,147.19 " fill="none" id="Increment-to-Check" style="stroke:#181818;stroke-width:1.0;stroke-dasharray:7.0,7.0;"/><polygon fill="#181818" points="577.61,145.76,567.8419,144.5014,572.8189,147.1902,570.1302,152.1672,577.61,145.76" style="stroke:#181818;stroke-width:1.0;"/><text fill="#000000" font-family="sans-serif" font-size="13" lengthAdjust="spacing" textLength="55" x="456" y="162.9951">«include»</text></g><!--MD5=[c50ec39f884d93654b4ab1d6e36e22b0]
link Add to Check--><g id="link_Add_Check"><path d="M366.99,75.99 C421.8,87.04 501.81,103.16 559.67,114.82 " fill="none" id="Add-to-Check" style="stroke:#181818;stroke-width:1.0;stroke-dasharray:7.0,7.0;"/><polygon fill="#181818" points="564.84,115.87,556.8216,110.1511,559.941,114.8702,555.2219,117.9896,564.84,115.87" style="stroke:#181818;stroke-width:1.0;"/><text fill="#000000" font-family="sans-serif" font-size="13" lengthAdjust="spacing" textLength="55" x="456" y="91.9951">«include»</text></g><!--MD5=[b727d5a2b6972c470d3621afb1d744fb]
@startuml Use Case Diagram
  skinparam actorStyle awesome
  left to right direction
  
  'Creating actors
  actor MovieFanatic
  
  rectangle "Movieteka" {
    'Use cases
    usecase Add as "Add movie with info"
    usecase Display as "Display all movies with info"
    usecase Increment as "Increment watch counter
                          for movie"
    usecase Check as "Check movie in the list"

    MovieFanatic - - Add
    MovieFanatic - - Display
    MovieFanatic - - Increment
    Increment ..> Check : <<include>>
    Add ..> Check : <<include>>
  }

  note "info:\n - rating\n - watch counter" as note1

@enduml

@startuml Use Case Diagram
  skinparam actorStyle awesome
  left to right direction
  
  actor MovieFanatic
  
  rectangle "Movieteka" {
    usecase Add as "Add movie with info"
    usecase Display as "Display all movies with info"
    usecase Increment as "Increment watch counter
                          for movie"
    usecase Check as "Check movie in the list"

    MovieFanatic - - Add
    MovieFanatic - - Display
    MovieFanatic - - Increment
    Increment ..> Check : <<include>>
    Add ..> Check : <<include>>
  }

  note "info:\n - rating\n - watch counter" as note1

@enduml

PlantUML version 1.2022.7(Mon Aug 22 19:01:30 CEST 2022)
(GPL source distribution)
Java Runtime: OpenJDK Runtime Environment
JVM: OpenJDK 64-Bit Server VM
Default Encoding: Cp1252
Language: en
Country: GB
--></g></svg>