<?xml version="1.0" encoding="UTF-8" standalone="no"?><svg xmlns="http://www.w3.org/2000/svg" xmlns:xlink="http://www.w3.org/1999/xlink" contentStyleType="text/css" height="275px" preserveAspectRatio="none" style="width:599px;height:275px;background:#FFFFFF;" version="1.1" viewBox="0 0 599 275" width="599px" zoomAndPan="magnify"><defs/><g><!--MD5=[29de3c702156c480bd0f484d327e7c92]
cluster Movieteka--><g id="cluster_Movieteka"><rect fill="none" height="262" rx="2.5" ry="2.5" style="stroke:#181818;stroke-width:1.0;" width="262" x="134" y="7"/><text fill="#000000" font-family="sans-serif" font-size="14" font-weight="bold" lengthAdjust="spacing" textLength="74" x="228" y="23.5332">Movieteka</text></g><g id="elem_Add movie with info"><ellipse cx="264.7516" cy="61.9503" fill="#F1F1F1" rx="82.7516" ry="18.9503" style="stroke:#181818;stroke-width:0.5;"/><text fill="#000000" font-family="sans-serif" font-size="14" lengthAdjust="spacing" textLength="121" x="204.2516" y="65.6788">Add movie with info</text></g><g id="elem_Display all movies with info"><ellipse cx="265.2412" cy="138.9482" fill="#F1F1F1" rx="102.7412" ry="22.9482" style="stroke:#181818;stroke-width:0.5;"/><text fill="#000000" font-family="sans-serif" font-size="14" lengthAdjust="spacing" textLength="167" x="181.7412" y="142.6768">Display all movies with info</text></g><g id="elem_Increase watch counter\nfor movie"><ellipse cx="265.1968" cy="225.0091" fill="#F1F1F1" rx="115.1968" ry="28.0091" style="stroke:#181818;stroke-width:0.5;"/><text fill="#000000" font-family="sans-serif" font-size="14" lengthAdjust="spacing" textLength="146" x="189.1968" y="220.721">Increase watch counter</text><text fill="#000000" font-family="sans-serif" font-size="14" lengthAdjust="spacing" textLength="58" x="233.1968" y="238.3303">for movie</text></g><!--MD5=[fbf0f86b85c959cf0beff16836bfcfe2]
entity MovieFanatic--><g id="elem_MovieFanatic"><ellipse cx="48" cy="116" fill="#F1F1F1" rx="16" ry="16" style="stroke:#181818;stroke-width:1.5;"/><path d="M48,136 C52,136 55,136 59,132 C67,132 75,140 75,148 L75,152 C75,156 71,160 67,160 L29,160 C25,160 21,156 21,152 L21,148 C21,140 29,132 37,132 C41,136 44,136 48,136 " fill="#F1F1F1" style="stroke:#181818;stroke-width:1.5;"/><text fill="#000000" font-family="sans-serif" font-size="14" lengthAdjust="spacing" textLength="84" x="6" y="176.0332">MovieFanatic</text></g><g id="elem_GMN10"><path d="M442,49 L442,58 L348.22,62 L442,66 L442,75.3516 A0,0 0 0 0 442,75.3516 L590,75.3516 A0,0 0 0 0 590,75.3516 L590,59 L580,49 L442,49 A0,0 0 0 0 442,49 " fill="#FEFFDD" style="stroke:#181818;stroke-width:0.5;"/><path d="M580,49 L580,59 L590,59 L580,49 " fill="#FEFFDD" style="stroke:#181818;stroke-width:0.5;"/><text fill="#000000" font-family="sans-serif" font-size="13" lengthAdjust="spacing" textLength="127" x="448" y="67.4951">list of movies watched</text></g><g id="elem_GMN13"><path d="M440,203.5 L440,221 L380.3,225 L440,229 L440,246.2031 A0,0 0 0 0 440,246.2031 L592,246.2031 A0,0 0 0 0 592,246.2031 L592,213.5 L582,203.5 L440,203.5 A0,0 0 0 0 440,203.5 " fill="#FEFFDD" style="stroke:#181818;stroke-width:0.5;"/><path d="M582,203.5 L582,213.5 L592,213.5 L582,203.5 " fill="#FEFFDD" style="stroke:#181818;stroke-width:0.5;"/><text fill="#000000" font-family="sans-serif" font-size="13" lengthAdjust="spacing" textLength="131" x="446" y="221.9951">counts how many time</text><text fill="#000000" font-family="sans-serif" font-size="13" lengthAdjust="spacing" textLength="123" x="446" y="238.3467">a movie was watched</text></g><!--MD5=[08f6e7b22e6f17ca1d72d3df37cc2990]
link MovieFanatic to Add movie with info--><g id="link_MovieFanatic_Add movie with info"><path d="M90.12,114.83 C101.49,108.77 114.01,102.68 126,98 C150.56,88.41 178.57,80.57 202.91,74.68 " fill="none" id="MovieFanatic-Add movie with info" style="stroke:#181818;stroke-width:1.0;"/></g><!--MD5=[53231369b77a16005b0236feb2652b2b]
link MovieFanatic to Display all movies with info--><g id="link_MovieFanatic_Display all movies with info"><path d="M90.2,139 C110.81,139 136.74,139 162.25,139 " fill="none" id="MovieFanatic-Display all movies with info" style="stroke:#181818;stroke-width:1.0;"/></g><!--MD5=[7f3e445b862b27409af73ec7e7099793]
link MovieFanatic to Increase watch counter\nfor movie--><g id="link_MovieFanatic_Increase watch counter\nfor movie"><path d="M90.39,162.02 C101.76,167.92 114.21,174.01 126,179 C147.05,187.91 170.46,196.27 191.93,203.35 " fill="none" id="MovieFanatic-Increase watch counter\nfor movie" style="stroke:#181818;stroke-width:1.0;"/></g><!--MD5=[9fe4dca2122f2b6bf89863a3a21db14d]
@startuml Use Case Diagram
  skinparam actorStyle awesome
  left to right direction
  
  'Creating actors
  actor MovieFanatic
  
  rectangle "Movieteka" {
    MovieFanatic - - (Add movie with info)
    MovieFanatic - - (Display all movies with info)
    MovieFanatic - - (Increase watch counter\nfor movie)
  }

  (Add movie with info)
  note right : list of movies watched

  (Increase watch counter\nfor movie)
  note right : counts how many time\na movie was watched

@enduml

@startuml Use Case Diagram
  skinparam actorStyle awesome
  left to right direction
  
  actor MovieFanatic
  
  rectangle "Movieteka" {
    MovieFanatic - - (Add movie with info)
    MovieFanatic - - (Display all movies with info)
    MovieFanatic - - (Increase watch counter\nfor movie)
  }

  (Add movie with info)
  note right : list of movies watched

  (Increase watch counter\nfor movie)
  note right : counts how many time\na movie was watched

@enduml

PlantUML version 1.2022.7(Mon Aug 22 19:01:30 CEST 2022)
(GPL source distribution)
Java Runtime: OpenJDK Runtime Environment
JVM: OpenJDK 64-Bit Server VM
Default Encoding: Cp1252
Language: en
Country: GB
--></g></svg>