<?xml version="1.0" encoding="UTF-8" standalone="no"?><svg xmlns="http://www.w3.org/2000/svg" xmlns:xlink="http://www.w3.org/1999/xlink" contentStyleType="text/css" height="345px" preserveAspectRatio="none" style="width:217px;height:345px;background:#161B22;" version="1.1" viewBox="0 0 217 345" width="217px" zoomAndPan="magnify"><defs/><g><!--MD5=[e69084ab16b022bdbef99762ea85e9d6]
class Movie--><g id="elem_Movie"><rect codeLine="4" fill="#2E2E2E" height="162.3179" id="Movie" rx="2.5" ry="2.5" style="stroke:#1B1B1B;stroke-width:0.5;" width="163" x="27" y="176"/><ellipse cx="88.5" cy="189" fill="#ADD1B2" rx="8" ry="8" style="stroke:#181818;stroke-width:1.0;"/><path d="M89.1406,193.1563 Q88.25,193.1563 87.4844,192.8906 Q86.7344,192.625 86.1875,192.1094 Q85.6563,191.5938 85.3438,190.8125 Q85.0469,190.0313 85.0469,189.0156 Q85.0469,188.0625 85.3281,187.2969 Q85.625,186.5156 86.1719,185.9531 Q86.6875,185.4219 87.4531,185.1406 Q88.2344,184.8438 89.1406,184.8438 Q89.6406,184.8438 90.0469,184.9063 Q90.4531,184.9531 90.7969,185.0469 Q91.1563,185.1563 91.4531,185.2813 Q91.75,185.4063 91.9688,185.5156 L91.9688,187.4531 L91.7344,187.4531 Q91.5781,187.3281 91.3438,187.1563 Q91.125,186.9688 90.8281,186.7969 Q90.5313,186.625 90.1875,186.5156 Q89.8438,186.3906 89.4531,186.3906 Q89.0156,186.3906 88.625,186.5313 Q88.2344,186.6563 87.9063,186.9844 Q87.5938,187.2813 87.3906,187.7969 Q87.2031,188.2969 87.2031,189.0156 Q87.2031,189.7656 87.4063,190.2813 Q87.625,190.7813 87.9375,191.0625 Q88.2656,191.3594 88.6719,191.4844 Q89.0781,191.6094 89.4688,191.6094 Q89.8438,191.6094 90.2031,191.5 Q90.5781,191.3906 90.8906,191.1875 Q91.1563,191.0469 91.375,190.875 Q91.6094,190.6875 91.75,190.5625 L91.9688,190.5625 L91.9688,192.4688 Q91.6719,192.6094 91.3906,192.7344 Q91.125,192.8438 90.8125,192.9219 Q90.4219,193.0313 90.0781,193.0938 Q89.7344,193.1563 89.1406,193.1563 Z " fill="#000000"/><text fill="#AAAAAA" font-family="Verdana" font-size="11" lengthAdjust="spacing" textLength="33" x="104.5" y="193.3748">Movie</text><line style="stroke:#1B1B1B;stroke-width:0.5;" x1="28" x2="189" y1="202" y2="202"/><rect fill="none" height="6" style="stroke:#C82930;stroke-width:1.0;" width="6" x="35" y="210.6843"/><text fill="#AAAAAA" font-family="Verdana" font-size="11" lengthAdjust="spacing" textLength="70" x="44" y="217.0591">String name</text><rect fill="none" height="6" style="stroke:#C82930;stroke-width:1.0;" width="6" x="35" y="224.053"/><text fill="#AAAAAA" font-family="Verdana" font-size="11" lengthAdjust="spacing" textLength="71" x="44" y="230.4277">String rating</text><rect fill="none" height="6" style="stroke:#C82930;stroke-width:1.0;" width="6" x="35" y="237.4216"/><text fill="#AAAAAA" font-family="Verdana" font-size="11" lengthAdjust="spacing" textLength="101" x="44" y="243.7964">int watch_counter</text><line style="stroke:#1B1B1B;stroke-width:0.5;" x1="28" x2="189" y1="250.106" y2="250.106"/><ellipse cx="38" cy="261.7903" fill="#84BE84" rx="3" ry="3" style="stroke:#038048;stroke-width:1.0;"/><text fill="#AAAAAA" font-family="Verdana" font-size="11" lengthAdjust="spacing" textLength="88" x="44" y="265.165">void setName()</text><ellipse cx="38" cy="275.1589" fill="#84BE84" rx="3" ry="3" style="stroke:#038048;stroke-width:1.0;"/><text fill="#AAAAAA" font-family="Verdana" font-size="11" lengthAdjust="spacing" textLength="91" x="44" y="278.5337">void setRating()</text><ellipse cx="38" cy="288.5276" fill="#84BE84" rx="3" ry="3" style="stroke:#038048;stroke-width:1.0;"/><text fill="#AAAAAA" font-family="Verdana" font-size="11" lengthAdjust="spacing" textLength="140" x="44" y="291.9023">void setWatch_counter()</text><ellipse cx="38" cy="301.8962" fill="#84BE84" rx="3" ry="3" style="stroke:#038048;stroke-width:1.0;"/><text fill="#AAAAAA" font-family="Verdana" font-size="11" lengthAdjust="spacing" textLength="99" x="44" y="305.271">String getName()</text><ellipse cx="38" cy="315.2649" fill="#84BE84" rx="3" ry="3" style="stroke:#038048;stroke-width:1.0;"/><text fill="#AAAAAA" font-family="Verdana" font-size="11" lengthAdjust="spacing" textLength="99" x="44" y="318.6396">String getrating()</text><ellipse cx="38" cy="328.6335" fill="#84BE84" rx="3" ry="3" style="stroke:#038048;stroke-width:1.0;"/><text fill="#AAAAAA" font-family="Verdana" font-size="11" lengthAdjust="spacing" textLength="131" x="44" y="332.0083">int getWatch_counter()</text></g><!--MD5=[b70ea40e8e63c610a3cadd5b9368e75b]
class Movies--><g id="elem_Movies"><rect codeLine="16" fill="#2E2E2E" height="108.8433" id="Movies" rx="2.5" ry="2.5" style="stroke:#1B1B1B;stroke-width:0.5;" width="203" x="7" y="7"/><ellipse cx="85.5" cy="20" fill="#ADD1B2" rx="8" ry="8" style="stroke:#181818;stroke-width:1.0;"/><path d="M86.1406,24.1563 Q85.25,24.1563 84.4844,23.8906 Q83.7344,23.625 83.1875,23.1094 Q82.6563,22.5938 82.3438,21.8125 Q82.0469,21.0313 82.0469,20.0156 Q82.0469,19.0625 82.3281,18.2969 Q82.625,17.5156 83.1719,16.9531 Q83.6875,16.4219 84.4531,16.1406 Q85.2344,15.8438 86.1406,15.8438 Q86.6406,15.8438 87.0469,15.9063 Q87.4531,15.9531 87.7969,16.0469 Q88.1563,16.1563 88.4531,16.2813 Q88.75,16.4063 88.9688,16.5156 L88.9688,18.4531 L88.7344,18.4531 Q88.5781,18.3281 88.3438,18.1563 Q88.125,17.9688 87.8281,17.7969 Q87.5313,17.625 87.1875,17.5156 Q86.8438,17.3906 86.4531,17.3906 Q86.0156,17.3906 85.625,17.5313 Q85.2344,17.6563 84.9063,17.9844 Q84.5938,18.2813 84.3906,18.7969 Q84.2031,19.2969 84.2031,20.0156 Q84.2031,20.7656 84.4063,21.2813 Q84.625,21.7813 84.9375,22.0625 Q85.2656,22.3594 85.6719,22.4844 Q86.0781,22.6094 86.4688,22.6094 Q86.8438,22.6094 87.2031,22.5 Q87.5781,22.3906 87.8906,22.1875 Q88.1563,22.0469 88.375,21.875 Q88.6094,21.6875 88.75,21.5625 L88.9688,21.5625 L88.9688,23.4688 Q88.6719,23.6094 88.3906,23.7344 Q88.125,23.8438 87.8125,23.9219 Q87.4219,24.0313 87.0781,24.0938 Q86.7344,24.1563 86.1406,24.1563 Z " fill="#000000"/><text fill="#AAAAAA" font-family="Verdana" font-size="11" lengthAdjust="spacing" textLength="39" x="101.5" y="24.3748">Movies</text><line style="stroke:#1B1B1B;stroke-width:0.5;" x1="8" x2="209" y1="33" y2="33"/><rect fill="none" height="6" style="stroke:#C82930;stroke-width:1.0;" width="6" x="15" y="41.6843"/><text fill="#AAAAAA" font-family="Verdana" font-size="11" lengthAdjust="spacing" textLength="149" x="24" y="48.0591">vector&lt;Movie&gt; movie_list</text><line style="stroke:#1B1B1B;stroke-width:0.5;" x1="8" x2="209" y1="54.3687" y2="54.3687"/><rect fill="#F24D5C" height="6" style="stroke:#C82930;stroke-width:1.0;" width="6" x="15" y="63.053"/><text fill="#AAAAAA" font-family="Verdana" font-size="11" lengthAdjust="spacing" textLength="132" x="24" y="69.4277">bool isMovieInTheList()</text><ellipse cx="18" cy="79.4216" fill="#84BE84" rx="3" ry="3" style="stroke:#038048;stroke-width:1.0;"/><text fill="#AAAAAA" font-family="Verdana" font-size="11" lengthAdjust="spacing" textLength="92" x="24" y="82.7964">void addMovie()</text><ellipse cx="18" cy="92.7903" fill="#84BE84" rx="3" ry="3" style="stroke:#038048;stroke-width:1.0;"/><text fill="#AAAAAA" font-family="Verdana" font-size="11" lengthAdjust="spacing" textLength="117" x="24" y="96.165">void displayMovies()</text><ellipse cx="18" cy="106.1589" fill="#84BE84" rx="3" ry="3" style="stroke:#038048;stroke-width:1.0;"/><text fill="#AAAAAA" font-family="Verdana" font-size="11" lengthAdjust="spacing" textLength="180" x="24" y="109.5337">void incrementWatch_counter()</text></g><!--MD5=[35151dd603a3f4243e6a460ebc4a1526]
reverse link Movies to Movie--><g id="link_Movies_Movie"><path codeLine="24" d="M108.5,129.51 C108.5,144.43 108.5,160.39 108.5,175.79 " fill="none" id="Movies-backto-Movie" style="stroke:#FFFFFF;stroke-width:1.0;"/><polygon fill="#FFFFFF" points="108.5,116.14,104.5,122.14,108.5,128.14,112.5,122.14,108.5,116.14" style="stroke:#FFFFFF;stroke-width:1.0;"/><text fill="#BBBBBB" font-family="Verdana" font-size="11" lengthAdjust="spacing" textLength="7" x="101.0516" y="135.0663">1</text><text fill="#BBBBBB" font-family="Verdana" font-size="11" lengthAdjust="spacing" textLength="22" x="85.4859" y="165.7657">0..*</text></g><!--MD5=[5eb36c15fe2dfabc7c7a87bf334d585b]
@startuml Class Diagram
!define DARKSTYLE
!include style.puml

class Movie {
  -String name
  -String rating
  -int watch_counter
  +void setName()
  +void setRating()
  +void setWatch_counter()
  +String getName()
  +String getrating()
  +int getWatch_counter()
}

class Movies {
  -vector<Movie> movie_list
  -bool isMovieInTheList()
  +void addMovie()
  +void displayMovies()
  +void incrementWatch_counter()
}

Movies "1" *- - "0..*" Movie

@enduml

@startuml Class Diagram












skinparam backgroundColor 161b22







skinparam circledCharacter {
  radius 8
  fontSize 11
  fontName Verdana
}

skinparam class {
    backgroundColor 2e2e2e
  borderColor 1b1b1b
    fontColor fff
  fontName Verdana
  fontSize 11
  stereotypeFontColor aaa
  stereotypeFontSize 11
    arrowColor fff
  arrowFontName Verdana
  arrowFontColor bbb
  arrowFontSize 11

  attributeFontColor aaa
  attributeFontSize 11
  attributeIconSize 11
}


skinparam actor {
    backgroundColor $ACCENT
  borderColor $ACCENTDARK
    fontColor fff
  fontName Verdana
  fontSize 11
  stereotypeFontColor aaa
  stereotypeFontSize 11
}

skinparam participant {
    backgroundColor 2e2e2e
  borderColor 1b1b1b
    fontColor fff
  fontName Verdana
  fontSize 11
  stereotypeFontColor aaa
  stereotypeFontSize 11
}

skinparam collections {
    backgroundColor 2e2e2e
  borderColor 1b1b1b
    fontColor fff
  fontName Verdana
  fontSize 11
  stereotypeFontColor aaa
  stereotypeFontSize 11
}

skinparam SequenceBox{
    backgroundColor 575757
  borderColor 767676
    fontColor fff
  fontName Verdana
  fontSize 11
  stereotypeFontColor aaa
  stereotypeFontSize 11
}


skinparam interface {
    backgroundColor $ACCENT
  borderColor $ACCENTDARK
    fontColor fff
  fontName Verdana
  fontSize 11
  stereotypeFontColor aaa
  stereotypeFontSize 11
}

skinparam component {
    backgroundColor 2e2e2e
  borderColor 1b1b1b
    fontColor fff
  fontName Verdana
  fontSize 11
  stereotypeFontColor aaa
  stereotypeFontSize 11
}

skinparam node {
    backgroundColor 2e2e2e
  borderColor 1b1b1b
    fontColor fff
  fontName Verdana
  fontSize 11
  stereotypeFontColor aaa
  stereotypeFontSize 11
}

skinparam database {
    backgroundColor 2e2e2e
  borderColor 1b1b1b
    fontColor fff
  fontName Verdana
  fontSize 11
  stereotypeFontColor aaa
  stereotypeFontSize 11
}

skinparam queue {
    backgroundColor 2e2e2e
  borderColor 1b1b1b
    fontColor fff
  fontName Verdana
  fontSize 11
  stereotypeFontColor aaa
  stereotypeFontSize 11
}


skinparam usecase {
    backgroundColor 2e2e2e
  borderColor 1b1b1b
    fontColor fff
  fontName Verdana
  fontSize 11
  stereotypeFontColor aaa
  stereotypeFontSize 11
    arrowColor fff
  arrowFontName Verdana
  arrowFontColor bbb
  arrowFontSize 11
}

skinparam activity {
    backgroundColor 2e2e2e
  borderColor 1b1b1b
    fontColor fff
  fontName Verdana
  fontSize 11
  stereotypeFontColor aaa
  stereotypeFontSize 11
    arrowColor fff
  arrowFontName Verdana
  arrowFontColor bbb
  arrowFontSize 11
}

skinparam sequence {
    fontColor fff
  fontName Verdana
  fontSize 11
  stereotypeFontColor aaa
  stereotypeFontSize 11
    arrowColor fff
  arrowFontName Verdana
  arrowFontColor bbb
  arrowFontSize 11

  lifeLineBorderColor $ACCENT
  lifeLineBackgroundColor 575757
}

skinparam boundary {
    backgroundColor $ACCENT
  borderColor $ACCENTDARK
    fontColor fff
  fontName Verdana
  fontSize 11
  stereotypeFontColor aaa
  stereotypeFontSize 11
}

skinparam control {
    backgroundColor $ACCENT
  borderColor $ACCENTDARK
    fontColor fff
  fontName Verdana
  fontSize 11
  stereotypeFontColor aaa
  stereotypeFontSize 11
}

skinparam entity {
    backgroundColor $ACCENT
  borderColor $ACCENTDARK
    fontColor fff
  fontName Verdana
  fontSize 11
  stereotypeFontColor aaa
  stereotypeFontSize 11
}


skinparam state {
    backgroundColor 2e2e2e
  borderColor 1b1b1b
    fontColor fff
  fontName Verdana
  fontSize 11
  stereotypeFontColor aaa
  stereotypeFontSize 11
    arrowColor fff
  arrowFontName Verdana
  arrowFontColor bbb
  arrowFontSize 11
  startColor $ACCENT
  endColor $ACCENTDARK
}


skinparam object {
    backgroundColor 2e2e2e
  borderColor 1b1b1b
    fontColor fff
  fontName Verdana
  fontSize 11
  stereotypeFontColor aaa
  stereotypeFontSize 11
    arrowColor fff
  arrowFontName Verdana
  arrowFontColor bbb
  arrowFontSize 11
}


skinparam note {
    backgroundColor $ACCENT
  borderColor $ACCENTDARK
    fontColor fff
  fontName Verdana
  fontSize 11
  stereotypeFontColor aaa
  stereotypeFontSize 11
}

skinparam cloud {
    backgroundColor 2e2e2e
  borderColor 1b1b1b
    fontColor fff
  fontName Verdana
  fontSize 11
  stereotypeFontColor aaa
  stereotypeFontSize 11
    arrowColor fff
  arrowFontName Verdana
  arrowFontColor bbb
  arrowFontSize 11
}

skinparam rectangle {
    backgroundColor 2e2e2e
  borderColor 1b1b1b
    fontColor fff
  fontName Verdana
  fontSize 11
  stereotypeFontColor aaa
  stereotypeFontSize 11
}

skinparam storage {
    backgroundColor 2e2e2e
  borderColor 1b1b1b
    fontColor fff
  fontName Verdana
  fontSize 11
  stereotypeFontColor aaa
  stereotypeFontSize 11
}


class Movie {
  -String name
  -String rating
  -int watch_counter
  +void setName()
  +void setRating()
  +void setWatch_counter()
  +String getName()
  +String getrating()
  +int getWatch_counter()
}

class Movies {
  -vector<Movie> movie_list
  -bool isMovieInTheList()
  +void addMovie()
  +void displayMovies()
  +void incrementWatch_counter()
}

Movies "1" *- - "0..*" Movie

@enduml

PlantUML version 1.2022.7(Mon Aug 22 19:01:30 CEST 2022)
(GPL source distribution)
Java Runtime: OpenJDK Runtime Environment
JVM: OpenJDK 64-Bit Server VM
Default Encoding: Cp1252
Language: en
Country: GB
--></g></svg>